<svg width="346" height="282" viewBox="0 0 346 282" fill="none" xmlns="http://www.w3.org/2000/svg">
<rect opacity="0.01" x="1.30261" y="0.727051" width="343.574" height="280.756" fill="white" fill-opacity="0.01"/>
<path d="M57.8657 197.769L46.4698 240.299H208.883C231.744 240.299 255.074 222.398 260.991 200.315L282.358 120.571L210.876 120.571L200.03 161.051L200.005 161.141C193.66 183.985 171.749 197.769 149.732 197.769L57.8657 197.769Z" fill="#FF7F32"/>
<path d="M126.181 42.1841H303.473L293.561 79.1769H19.7278L16.6782 67.7958H92.8032C96.8511 52.6888 110.541 42.1841 126.181 42.1841Z" fill="#003B5C"/>
<path d="M219.579 88.4906L22.2234 88.4906L25.2736 99.8741L216.529 99.8741L219.579 88.4906Z" fill="#003B5C"/>
<path d="M27.7696 109.188L214.033 109.188L210.985 120.564H210.85L210.849 120.567L30.8198 120.571L27.7696 109.188Z" fill="#003B5C"/>
<path d="M33.3148 129.885L165.637 129.885L160.216 150.117C159.49 152.601 155.886 156.375 149.843 156.375L69.0684 156.375L73.1154 141.271H36.3657L33.3148 129.885Z" fill="#003B5C"/>
</svg>
